<svg xmlns="http://www.w3.org/2000/svg" fill="none" viewBox="0 0 76 54" height="54" width="76">
<path fill="#F03932" d="M75.8934 19.6981V14.3135C75.8972 14.0571 75.9167 13.138 74.8789 13.4355L38.6509 24.4289C38.3678 24.5123 38.1364 24.3392 38.1364 24.0436V17.1764C38.1364 16.8808 38.3653 16.5624 38.6452 16.4689L64.8208 7.70914C65.3094 7.53037 65.834 7.39897 65.8277 6.18927V0.845741C65.834 0.459774 65.7949 -0.216148 64.8416 0.0681152L38.632 10.8468C38.3596 10.9592 38.1364 11.2928 38.1364 11.5884V16.0918C38.1364 16.3874 37.9132 16.5371 37.6402 16.4247L8.92922 4.61824C8.45091 4.41988 7.95021 4.55002 7.94277 5.39586V13.4203C7.94277 13.7159 7.97675 14.7292 8.95091 14.937L37.6276 24.4302C37.9075 24.5224 38.1364 24.8401 38.1364 25.1358V29.6215C38.1364 29.9171 37.9062 30.087 37.6244 29.9992L1.35185 18.587C0.258013 18.2174 0.362996 19.0772 0.345215 19.453L0.386387 28.2709C0.317156 29.4755 1.13286 29.6354 1.41956 29.7042L37.6149 38.4012C37.9018 38.4701 38.1364 38.7684 38.1364 39.0641V43.5701C38.1364 43.8654 37.8999 44.0589 37.6112 43.9994L13.2973 39.0019C12.2402 38.8254 12.2838 39.6308 12.2826 39.9723L12.4316 48.766C12.4107 50.0423 12.9471 49.9734 13.4303 50.0689C13.4303 50.0689 37.3479 53.0801 37.4148 53.0902C37.6811 53.1302 38.1301 53.0852 38.1351 52.5115L38.1364 44.6738C38.1364 44.3784 38.376 44.1098 38.6692 44.0767L62.7716 41.372C63.1152 41.331 63.8226 41.1803 63.8182 40.0713V35.6156C63.8226 35.1868 63.7438 34.4577 62.7766 34.598L38.666 38.4299C38.3747 38.476 38.1364 38.2722 38.1364 37.9766V30.7712C38.1364 30.4755 38.3703 30.1761 38.6566 30.1053L74.8663 21.134C75.9823 20.9432 75.8934 19.9931 75.8934 19.6981Z"></path>
</svg>
